<?xml version="1.0" encoding="utf-8"?>
<!-- Generator: Adobe Illustrator 27.8.0, SVG Export Plug-In . SVG Version: 6.00 Build 0)  -->
<svg version="1.1" id="Layer_1" xmlns="http://www.w3.org/2000/svg" xmlns:xlink="http://www.w3.org/1999/xlink" x="0px" y="0px"
	 viewBox="0 0 128 113" style="enable-background:new 0 0 128 113;" xml:space="preserve">
<g>
	<path d="M69,9.6c0-0.2-0.1-0.5-0.1-0.7c-0.2-3.4,2.3-6.4,5.8-6.7C78.2,2,81.1,4.5,81.4,8c0.2,3.4-2.3,6.4-5.8,6.7
		c-0.2,0-0.4,0-0.6,0c-0.1,0-0.2,0.1-0.3,0.2c-0.4,0.6,0.9,0.4,0,2.9c0,0,0,0.3-0.1,0.5c-0.1,0.9-0.4,3.7-0.5,5.1
		c0.2,0.2,0.2,0.3,0.2,0.8c-0.1,0.7-0.2,2.4-0.5,3.5c-0.2,0.9-0.6,1.1-0.9,1.3c-0.4,1.9-0.5,3.5-1.7,5.9c-0.1,1.8-0.2,2.3-0.6,3.1
		c0,2.6,0.1,3-1.6,7.2c-0.5,1.9,0,3.3,0.5,5.3c0.5,2.1,1.9,2.9,2.1,5.1c0.5,5,0.4,8.4-0.7,12.3l0.9,2.2c1.2,0.5,4,2,2.4,4.3
		c2.3,1.2,5.7,2.4,8.5,4.8c1.1,0.9,2.3,2,3.4,3.2c2,0.3,1.8,0.5,3.3,1.4c4.4,2.7,11.6,8.1,15.7,11.9c0.7,0.4,1,0.7,1.6,1
		c0.1,0.2,0.1,0.2,0.1,0.3c-0.2,0.5-0.2,0.5-0.4,0.9c0.2,0.2,0.6,0.5,0.9,0.7c0.2,0.1,0.2,0,0.6-0.1c0.5,0.5,1.2,0.9,1.4,0.9
		c0.7-0.2,0.6,0,1.2-0.7c0.2-0.2,0.6,0,0.6,0c0.2-0.3,0.7-0.8,1.3-1.2c0.5-0.3,1.5-0.3,1.5-0.3c0.3,0,0.3,0.3,0.2,0.4
		c-0.4,0.2-1.1,0.4-1.6,0.7c-1,1-1.7,2.3-1.7,2.3c1.9-0.3,3.1,0.2,4.7,0c0.9,0,1.5,0,2.4-0.7c0,0,0.9-0.6,1.7-1
		c0.8-0.3,1.5-0.2,2.2,0.3c0.5,0.5,0.8,0.5,0,1.3c-0.3,0.3-0.6,0.6-1.1,1.1c-0.8,0.8-2,2-3.2,2.9c-1.2,0.9-2.6,1.8-3.4,2.2
		c-2.1,1.5-1.6,1.1-3.3,2.7c-0.2,0.2-0.8,0.5-1,0.7c-0.7,0.4-0.9,0.1-1.3-0.7c0,0-0.2-0.3-0.5-0.9c-0.4-0.7-0.6-1.5-0.5-1.5
		c-0.4-0.1-2.2-2.2-2.2-2.6c-0.4-0.1-2-1.7-2.1-1.9l-1.4-1.1c-1.6,0.3-2-0.7-6.3-3.7c-0.5,0-1.3-0.3-2.3-1.1c-2-1.6-6.6-5.1-7.4-5.5
		c-0.9-0.4-1.9-0.8-2.5-1.4c-0.9-0.2-1.4-0.3-1.9-0.4c-0.5-0.1-0.9-0.3-2.1-0.5c-2-0.2-4-1.1-6-2c-0.9-0.4-1.7-0.7-2.5-1
		c-1.8-0.8-3.3-1.4-4.5-1.7c-0.5,0-2.6-0.7-3.7-1.3c-0.4-0.2-0.6-0.4-0.9-0.5c-0.6-0.1-1,0.1-1.2,0.2c-1.4,0.8-2.8,1.4-4,2.1
		c-1.2,0.6-2.2,1.3-3.4,1.9c-1,0.6-2.2,1.1-3.4,1.7c0,0-3.5,1.7-5.4,2.4c-1.6,1.3-5,3.7-7,4.8c-1,0.5-3,1.7-3.9,2
		c-0.5,0.4-2.4,1.7-3.8,2.8c-1.1,0.8-2,1.5-2,1.5c-0.6,0.6-0.6,0.9-1.8,0.3c-0.3,0.3-0.6,0.5-0.8,0.6c-0.9,0.6-1,0.5-1.3,0.5
		c-0.6,0.5-0.7,0.3-1.2,0.9c-0.4,0.6,0,0.4-0.7,0.7c-0.2,0.1-0.2,0.3-0.4,0.4c-0.6,0.5-0.6,1.9-2.1,2c-0.8,0.6-0.6,1.3-1.3,1.3
		c0,0.6-1.1,1.5-1.3,1.5c-1.8,0.6-2-0.7-4.2,0.3c-0.3,0.1-0.7,0.5-1.3,0.6c-1,0.2-2.2,0-2.9-0.6c-1.1-0.9-2.2-2.6-2.2-2.6
		c-0.4-0.8-0.2-1.4,1-2.2c0.5-0.3,0.6-0.5,1.3-0.6c0.4-0.1,0.3,0.1,1-0.2c0.4-0.1,0.4,0,1.2-0.1c0.2-0.1,0.4-0.2,0.8-0.3
		c0.6-0.2,1.3-0.4,1.3-0.4s0.2-0.2,0.8-0.1c0.5-0.2,1.1-0.5,1.3-0.6c-0.1-0.8,0-0.8,0.4-1.1c0.5-0.4,0.6-0.3,0.9-0.1
		c0.2-0.1,0.2-0.1,0.2-0.2c-0.1-0.4-0.4-0.6-0.3-1.6c-0.2-0.4-0.4-0.9-0.4-1.1c0.1-0.3,0.2-0.5,0.3-0.6c0.2-0.1,0.3,0,0.4,0.2
		c0.2,0.2,0.3,0.9,0.3,0.9c0.1,0.7,0.3,1.7,1,1.2c0.4-0.4,0.5-1.6,1.4-1.3l0.6,0.5c0.5-0.5,0.6-0.5,0.9-0.7c0,0-0.5-0.5-0.1-0.9
		c0.3-0.3,0.7-0.5,1.3-1.2c1.8-1.9,2.7-2.8,4.5-4.4c3.8-3.1,8.1-5.3,10.8-6.4c0.9-1.1,1.8-1.9,3.7-2.1c2.4-4,6.9-7.5,7.9-8.1
		c0.8-1.5,1.2-1.4,2.3-1.7c0.9-0.7,1.1-0.7,1.5-1.4c0.4-1.5-0.9-5.5,2.3-5.7c0.7-1,0.5-0.7,1.3-1.6c-0.5-1.3-0.7-2.3-0.9-3.2
		c0-0.1-1.3-1-0.9-2.1c-0.5-0.6-1.5-2.1-1.8-2.8c-0.1,0-0.3-0.1-0.4-0.1c-0.2,0-0.4,0-0.6,0c-0.5,1.3-1,1.4-1.9,1.7
		c-1.6,3.4-2.1,4.8-6.6,7.6c-1.8,2-2.3,4.2-2.3,4.2c-0.3,0.7-0.2,1.6,0,2.1c-0.2,0.7-0.2,0.8-0.2,0.8c0.1,0.3,0.4,0.6,0.7,0.7
		c0.5,0.1,1.1,0.1,1,0.7c-0.1,0.7-1.1,0.6-1.5,0.5c-1.8-0.3-1.2-1.5-2.4-1.1c-0.9,0.6-1.2,2.3-2.6,2c-0.2-0.1-0.1-0.5,0-0.8
		c0.2-0.4,0.6-0.8,0.3-0.9c-0.9,0.3-2.8,0.9-2.8,0.9c-0.9,0.2-1.8-0.2-1-0.8c0.4-0.2,1-0.4,1.7-0.8c0,0,0.4-0.5-0.3-0.2
		c-0.8,0.3-1.9,0.4-2.7,0.4c0,0-1.7-0.2-1.9-0.4c-0.2-0.1-0.4-0.6,0.1-0.6c0.7,0,2.3-0.2,3.6-0.5c0.6-0.2,1.8-0.9,2.5-1.3
		c0,0,0.7-1,1.1-1.3c0.7-0.8,1.2-1.2,1.8-2c0.6-1.2,1.2-3,3.1-5.9c0.9-1.3,2-2.9,3.3-4.3c0,0,0.4-2.2,2.1-3.8c0.4-0.9,1-2,1.6-3
		c0.2-0.4,0.4-0.7,0.7-1.1c0.6-0.9,1.1-2.5,3.3-2.7c0,0,0.9-0.7,1.3-1.2c0.6-0.5,0.4-1.2,0.9-1.7c-0.7-0.7-2.4-1.9-2.6-3.7
		c-0.2-1.9,0.5-3.4,1.6-4.5c1.2-1.2,2.6-1.9,4.1-1.8c2,0.3,2.4,1,3,1.6c0.6,0.6,0.8,0.2,1.1,0.9c1.7,0.4,1.6,0.2,1.6,1.5
		c0.3,0.3,0.7,0.7,0.7,1.4c0.6-1.2,0.7-1.4,2.2-2.7c0.4-1,0.6-2.1,0.9-3.1c0.3-1,0.7-1.9,0.9-2.7c-0.3-2.1,0.3-2.4,1.1-4.3
		c-0.1-0.3-0.1-0.3-0.1-0.7c0.3-1.2,0.8-2.8,1.1-3.9c0,0,0.1-0.4,0.5-0.4c0.4-1.3,0.9-3.8,1-4.3c0.4-1.4,0.1-1.8-0.2-2.6
		c-0.1-0.3-0.1-0.6-0.2-0.9c-0.5-0.8-1-1.9-1.3-2.6C69.4,11.4,69.1,9.6,69,9.6C68.8,8.7,69,9.6,69,9.6"/>
</g>
</svg>
